# xmcd
#
# Track frame offsets: 
#        150
#        14495
#        38136
#        50922
#        73527
#        91013
#        111093
#
# Disc length: 1810 seconds
#
# Revision: 0
# Processed by: cddbd v1.5.2PL0 Copyright (c) Steve Scherf et al.
# Submitted via: ExactAudioCopy v0.99pb4
#
DISCID=57071007
DTITLE=Cas Lucas - One Takes
DYEAR=2002
DGENRE=Blues
TTITLE0=Blind
TTITLE1=Choose Blues
TTITLE2=Broken Mold
TTITLE3=Diamonds On The Soles Of Her Shoes
TTITLE4=By And By
TTITLE5=Wash
TTITLE6=Down Here With Me
EXTD=
EXTT0=
EXTT1=
EXTT2=
EXTT3=
EXTT4=
EXTT5=
EXTT6=
PLAYORDER=
